<svg width="14" height="10" viewBox="0 0 14 10" fill="none" xmlns="http://www.w3.org/2000/svg">
<path d="M13.9919 1.79463C13.9919 1.92981 13.9485 2.0494 13.8617 2.15338L7.79154 9.42203C7.7047 9.52602 7.60484 9.57801 7.49194 9.57801C7.37905 9.57801 7.27918 9.52602 7.19234 9.42203L1.1222 2.15338C1.03536 2.0494 0.991943 1.92981 0.991943 1.79463C0.991943 1.65945 1.03536 1.53986 1.1222 1.43588L1.77351 0.65598C1.86035 0.551993 1.96021 0.5 2.07311 0.5C2.186 0.5 2.28586 0.551993 2.3727 0.65598L7.49194 6.78598L12.6112 0.65598C12.698 0.551993 12.7979 0.5 12.9108 0.5C13.0237 0.5 13.1235 0.551993 13.2104 0.65598L13.8617 1.43588C13.9485 1.53986 13.9919 1.65945 13.9919 1.79463Z" fill="#0A7777"/>
</svg>
