<svg width="29" height="27" viewBox="0 0 29 27" fill="none" xmlns="http://www.w3.org/2000/svg">
<path d="M24.1169 2.83329H21.3669V1.49996C21.3669 1.14634 21.2221 0.807199 20.9642 0.55715C20.7064 0.307102 20.3566 0.166626 19.9919 0.166626C19.6273 0.166626 19.2775 0.307102 19.0197 0.55715C18.7618 0.807199 18.6169 1.14634 18.6169 1.49996V2.83329H10.3669V1.49996C10.3669 1.14634 10.2221 0.807199 9.96422 0.55715C9.70635 0.307102 9.35662 0.166626 8.99194 0.166626C8.62727 0.166626 8.27753 0.307102 8.01967 0.55715C7.76181 0.807199 7.61694 1.14634 7.61694 1.49996V2.83329H4.86694C3.77293 2.83329 2.72372 3.25472 1.95013 4.00487C1.17654 4.75501 0.741943 5.77243 0.741943 6.83329V22.8333C0.741943 23.8942 1.17654 24.9116 1.95013 25.6617C2.72372 26.4119 3.77293 26.8333 4.86694 26.8333H24.1169C25.211 26.8333 26.2602 26.4119 27.0338 25.6617C27.8073 24.9116 28.2419 23.8942 28.2419 22.8333V6.83329C28.2419 5.77243 27.8073 4.75501 27.0338 4.00487C26.2602 3.25472 25.211 2.83329 24.1169 2.83329ZM25.4919 22.8333C25.4919 23.1869 25.3471 23.5261 25.0892 23.7761C24.8314 24.0261 24.4816 24.1666 24.1169 24.1666H4.86694C4.50227 24.1666 4.15253 24.0261 3.89467 23.7761C3.63681 23.5261 3.49194 23.1869 3.49194 22.8333V13.5H25.4919V22.8333ZM25.4919 10.8333H3.49194V6.83329C3.49194 6.47967 3.63681 6.14053 3.89467 5.89048C4.15253 5.64044 4.50227 5.49996 4.86694 5.49996H7.61694V6.83329C7.61694 7.18691 7.76181 7.52605 8.01967 7.7761C8.27753 8.02615 8.62727 8.16663 8.99194 8.16663C9.35662 8.16663 9.70635 8.02615 9.96422 7.7761C10.2221 7.52605 10.3669 7.18691 10.3669 6.83329V5.49996H18.6169V6.83329C18.6169 7.18691 18.7618 7.52605 19.0197 7.7761C19.2775 8.02615 19.6273 8.16663 19.9919 8.16663C20.3566 8.16663 20.7064 8.02615 20.9642 7.7761C21.2221 7.52605 21.3669 7.18691 21.3669 6.83329V5.49996H24.1169C24.4816 5.49996 24.8314 5.64044 25.0892 5.89048C25.3471 6.14053 25.4919 6.47967 25.4919 6.83329V10.8333Z" fill="#0A7777"/>
</svg>
