<svg width="76" height="20" viewBox="0 0 76 20" fill="none" xmlns="http://www.w3.org/2000/svg">
<path d="M0.0880904 4.19602V1.54545H14.0142V4.19602H8.61934V19H5.48298V4.19602H0.0880904ZM15.2031 19V5.90909H18.1946V8.09091H18.331C18.5696 7.33523 18.9787 6.75284 19.5583 6.34375C20.1435 5.92898 20.8111 5.72159 21.5611 5.72159C21.7316 5.72159 21.9219 5.73011 22.1321 5.74716C22.348 5.75852 22.527 5.77841 22.6691 5.80682V8.64489C22.5384 8.59943 22.331 8.55966 22.0469 8.52557C21.7685 8.4858 21.4986 8.46591 21.2372 8.46591C20.6747 8.46591 20.1691 8.58807 19.7202 8.83239C19.277 9.07102 18.9276 9.40341 18.6719 9.82955C18.4162 10.2557 18.2884 10.7472 18.2884 11.304V19H15.2031ZM28.2514 19.2642C27.4219 19.2642 26.6747 19.1165 26.01 18.821C25.3509 18.5199 24.8281 18.0767 24.4418 17.4915C24.0611 16.9062 23.8708 16.1847 23.8708 15.3267C23.8708 14.5881 24.0071 13.9773 24.2799 13.4943C24.5526 13.0114 24.9247 12.625 25.3963 12.3352C25.8679 12.0455 26.3992 11.8267 26.9901 11.679C27.5867 11.5256 28.2031 11.4148 28.8395 11.3466C29.6066 11.267 30.2287 11.196 30.706 11.1335C31.1833 11.0653 31.5299 10.9631 31.7458 10.8267C31.9674 10.6847 32.0781 10.4659 32.0781 10.1705V10.1193C32.0781 9.47727 31.8878 8.98011 31.5071 8.62784C31.1264 8.27557 30.5781 8.09943 29.8622 8.09943C29.1066 8.09943 28.5071 8.2642 28.0639 8.59375C27.6264 8.9233 27.331 9.3125 27.1776 9.76136L24.2969 9.35227C24.5242 8.55682 24.8992 7.89205 25.4219 7.35795C25.9446 6.81818 26.5838 6.41477 27.3395 6.14773C28.0952 5.875 28.9304 5.73864 29.8452 5.73864C30.4759 5.73864 31.1037 5.8125 31.7287 5.96023C32.3537 6.10795 32.9247 6.35227 33.4418 6.69318C33.9588 7.02841 34.3736 7.4858 34.6861 8.06534C35.0043 8.64489 35.1634 9.36932 35.1634 10.2386V19H32.1975V17.2017H32.0952C31.9077 17.5653 31.6435 17.9062 31.3026 18.2244C30.9674 18.5369 30.5441 18.7898 30.0327 18.983C29.527 19.1705 28.9333 19.2642 28.2514 19.2642ZM29.0526 16.9972C29.6719 16.9972 30.2088 16.875 30.6634 16.6307C31.1179 16.3807 31.4674 16.0511 31.7117 15.642C31.9617 15.233 32.0867 14.7869 32.0867 14.304V12.7614C31.9901 12.8409 31.8253 12.9148 31.5924 12.983C31.3651 13.0511 31.1094 13.1108 30.8253 13.1619C30.5412 13.2131 30.26 13.2585 29.9816 13.2983C29.7031 13.3381 29.4617 13.3722 29.2571 13.4006C28.7969 13.4631 28.385 13.5653 28.0213 13.7074C27.6577 13.8494 27.3708 14.0483 27.1605 14.304C26.9503 14.554 26.8452 14.8778 26.8452 15.2756C26.8452 15.8438 27.0526 16.2727 27.4674 16.5625C27.8821 16.8523 28.4105 16.9972 29.0526 16.9972ZM49.4901 5.90909L44.8281 19H41.4191L36.7571 5.90909H40.0469L43.0554 15.6335H43.1918L46.2088 5.90909H49.4901ZM56.9752 19.2557C55.6627 19.2557 54.5291 18.983 53.5746 18.4375C52.6257 17.8864 51.8956 17.108 51.3843 16.1023C50.8729 15.0909 50.6172 13.9006 50.6172 12.5312C50.6172 11.1847 50.8729 10.0028 51.3843 8.9858C51.9013 7.96307 52.6229 7.16761 53.549 6.59943C54.4752 6.02557 55.5632 5.73864 56.8132 5.73864C57.6201 5.73864 58.3814 5.86932 59.0973 6.13068C59.8189 6.38636 60.4553 6.78409 61.0064 7.32386C61.5632 7.86364 62.0007 8.55114 62.3189 9.38636C62.6371 10.2159 62.7962 11.2045 62.7962 12.3523V13.2983H52.0661V11.2188H59.8388C59.8331 10.6278 59.7053 10.1023 59.4553 9.64205C59.2053 9.17614 58.8558 8.80966 58.407 8.54261C57.9638 8.27557 57.4468 8.14205 56.8558 8.14205C56.2252 8.14205 55.6712 8.29545 55.1939 8.60227C54.7166 8.90341 54.3445 9.30114 54.0774 9.79545C53.8161 10.2841 53.6826 10.821 53.6769 11.4062V13.2216C53.6769 13.983 53.8161 14.6364 54.0945 15.1818C54.3729 15.7216 54.7621 16.1364 55.2621 16.4261C55.7621 16.7102 56.3473 16.8523 57.0178 16.8523C57.4666 16.8523 57.8729 16.7898 58.2365 16.6648C58.6002 16.5341 58.9155 16.3438 59.1826 16.0938C59.4496 15.8438 59.6513 15.5341 59.7877 15.1648L62.6683 15.4886C62.4865 16.25 62.1399 16.9148 61.6286 17.483C61.1229 18.0455 60.4752 18.483 59.6854 18.7955C58.8956 19.1023 57.9922 19.2557 56.9752 19.2557ZM68.4915 1.54545V19H65.4063V1.54545H68.4915ZM71.6641 19V5.90909H74.7493V19H71.6641ZM73.2152 4.05114C72.7266 4.05114 72.3061 3.8892 71.9539 3.56534C71.6016 3.23579 71.4254 2.84091 71.4254 2.38068C71.4254 1.91477 71.6016 1.51989 71.9539 1.19602C72.3061 0.866477 72.7266 0.701704 73.2152 0.701704C73.7095 0.701704 74.13 0.866477 74.4766 1.19602C74.8289 1.51989 75.005 1.91477 75.005 2.38068C75.005 2.84091 74.8289 3.23579 74.4766 3.56534C74.13 3.8892 73.7095 4.05114 73.2152 4.05114Z" fill="#0A7777"/>
</svg>
