<svg width="23" height="29" viewBox="0 0 23 29" fill="none" xmlns="http://www.w3.org/2000/svg">
<path d="M11.992 0.5C9.07563 0.50344 6.27974 1.66347 4.21758 3.72563C2.15543 5.78778 0.995396 8.58367 0.991955 11.5C0.988462 13.8832 1.76694 16.2018 3.20796 18.1C3.20796 18.1 3.50796 18.495 3.55696 18.552L11.992 28.5L20.431 18.547C20.475 18.494 20.776 18.1 20.776 18.1L20.777 18.097C22.2173 16.1996 22.9954 13.8821 22.992 11.5C22.9885 8.58367 21.8285 5.78778 19.7663 3.72563C17.7042 1.66347 14.9083 0.50344 11.992 0.5ZM11.992 6.5C12.5853 6.5 13.1653 6.67595 13.6587 7.00559C14.152 7.33524 14.5365 7.80377 14.7636 8.35195C14.9907 8.90013 15.0501 9.50333 14.9343 10.0853C14.8186 10.6672 14.5328 11.2018 14.1133 11.6213C13.6937 12.0409 13.1592 12.3266 12.5772 12.4424C11.9953 12.5581 11.3921 12.4987 10.8439 12.2716C10.2957 12.0446 9.82719 11.6601 9.49755 11.1667C9.1679 10.6734 8.99196 10.0933 8.99196 9.5C8.99275 8.70459 9.30908 7.94199 9.87151 7.37956C10.4339 6.81712 11.1966 6.50079 11.992 6.5ZM15.992 17.5H13.992V15.5H9.99196V17.5H7.99196V15.5C7.99249 14.9697 8.20337 14.4613 8.57833 14.0864C8.95329 13.7114 9.46169 13.5005 9.99196 13.5H13.992C14.5222 13.5005 15.0306 13.7114 15.4056 14.0864C15.7805 14.4613 15.9914 14.9697 15.992 15.5V17.5Z" fill="#0A7777"/>
</svg>
