<svg width="34" height="33" viewBox="0 0 34 33" fill="none" xmlns="http://www.w3.org/2000/svg">
<path d="M25.2096 21.188C27.2067 18.5453 28.1012 15.2689 27.7141 12.0143C27.327 8.75957 25.6869 5.76663 23.1219 3.63422C20.5569 1.5018 17.2561 0.387164 13.88 0.51331C10.5038 0.639457 7.30132 1.99708 4.91312 4.31457C2.52491 6.63206 1.12715 9.73851 0.999482 13.0124C0.87181 16.2863 2.02364 19.4863 4.22453 21.972C6.42542 24.4578 9.51306 26.0461 12.8697 26.4191C16.2264 26.7922 19.6045 25.9224 22.3283 23.984H22.3263C22.3881 24.064 22.4541 24.14 22.5284 24.214L30.469 31.914C30.8557 32.2892 31.3804 32.5002 31.9275 32.5004C32.4746 32.5005 32.9994 32.29 33.3864 31.915C33.7734 31.5399 33.9909 31.0312 33.9911 30.5007C33.9913 29.9701 33.7742 29.4612 33.3874 29.086L25.4468 21.386C25.3731 21.3136 25.2938 21.2467 25.2096 21.186V21.188ZM25.7417 13.5C25.7417 14.9445 25.4483 16.3749 24.8783 17.7095C24.3082 19.0441 23.4726 20.2567 22.4192 21.2781C21.3659 22.2996 20.1154 23.1098 18.7391 23.6626C17.3628 24.2154 15.8877 24.5 14.398 24.5C12.9083 24.5 11.4332 24.2154 10.0569 23.6626C8.68065 23.1098 7.43012 22.2996 6.37676 21.2781C5.32339 20.2567 4.48782 19.0441 3.91774 17.7095C3.34767 16.3749 3.05425 14.9445 3.05425 13.5C3.05425 10.5826 4.24939 7.78468 6.37676 5.72178C8.50412 3.65888 11.3895 2.49996 14.398 2.49996C17.4065 2.49996 20.2919 3.65888 22.4192 5.72178C24.5466 7.78468 25.7417 10.5826 25.7417 13.5Z" fill="#0A7777"/>
</svg>
