<svg width="520" height="51" viewBox="0 0 520 51" fill="none" xmlns="http://www.w3.org/2000/svg">
<path d="M27.1169 14.8333H24.3669V13.5C24.3669 13.1463 24.2221 12.8072 23.9642 12.5572C23.7064 12.3071 23.3566 12.1666 22.9919 12.1666C22.6273 12.1666 22.2775 12.3071 22.0197 12.5572C21.7618 12.8072 21.6169 13.1463 21.6169 13.5V14.8333H13.3669V13.5C13.3669 13.1463 13.2221 12.8072 12.9642 12.5572C12.7064 12.3071 12.3566 12.1666 11.9919 12.1666C11.6273 12.1666 11.2775 12.3071 11.0197 12.5572C10.7618 12.8072 10.6169 13.1463 10.6169 13.5V14.8333H7.86694C6.77293 14.8333 5.72372 15.2547 4.95013 16.0049C4.17654 16.755 3.74194 17.7724 3.74194 18.8333V34.8333C3.74194 35.8942 4.17654 36.9116 4.95013 37.6617C5.72372 38.4119 6.77293 38.8333 7.86694 38.8333H27.1169C28.211 38.8333 29.2602 38.4119 30.0338 37.6617C30.8073 36.9116 31.2419 35.8942 31.2419 34.8333V18.8333C31.2419 17.7724 30.8073 16.755 30.0338 16.0049C29.2602 15.2547 28.211 14.8333 27.1169 14.8333V14.8333ZM28.4919 34.8333C28.4919 35.1869 28.3471 35.5261 28.0892 35.7761C27.8314 36.0261 27.4816 36.1666 27.1169 36.1666H7.86694C7.50227 36.1666 7.15253 36.0261 6.89467 35.7761C6.63681 35.5261 6.49194 35.1869 6.49194 34.8333V25.5H28.4919V34.8333ZM28.4919 22.8333H6.49194V18.8333C6.49194 18.4797 6.63681 18.1405 6.89467 17.8905C7.15253 17.6404 7.50227 17.5 7.86694 17.5H10.6169V18.8333C10.6169 19.1869 10.7618 19.5261 11.0197 19.7761C11.2775 20.0261 11.6273 20.1666 11.9919 20.1666C12.3566 20.1666 12.7064 20.0261 12.9642 19.7761C13.2221 19.5261 13.3669 19.1869 13.3669 18.8333V17.5H21.6169V18.8333C21.6169 19.1869 21.7618 19.5261 22.0197 19.7761C22.2775 20.0261 22.6273 20.1666 22.9919 20.1666C23.3566 20.1666 23.7064 20.0261 23.9642 19.7761C24.2221 19.5261 24.3669 19.1869 24.3669 18.8333V17.5H27.1169C27.4816 17.5 27.8314 17.6404 28.0892 17.8905C28.3471 18.1405 28.4919 18.4797 28.4919 18.8333V22.8333Z" fill="#0A7777"/>
<path d="M61.7675 41V39.858L64.7973 36.8878C65.0871 36.5952 65.3286 36.3352 65.5218 36.108C65.715 35.8807 65.8598 35.6605 65.9564 35.4474C66.053 35.2344 66.1013 35.0071 66.1013 34.7656C66.1013 34.4901 66.0388 34.2543 65.9138 34.0582C65.7888 33.8594 65.6169 33.706 65.3982 33.598C65.1794 33.4901 64.9309 33.4361 64.6525 33.4361C64.3655 33.4361 64.1141 33.4957 63.8982 33.6151C63.6823 33.7315 63.5147 33.8977 63.3954 34.1136C63.2789 34.3295 63.2206 34.5866 63.2206 34.8849H61.7164C61.7164 34.331 61.8428 33.8494 62.0956 33.4403C62.3485 33.0312 62.6965 32.7145 63.1397 32.4901C63.5857 32.2656 64.0971 32.1534 64.6738 32.1534C65.259 32.1534 65.7732 32.2628 66.2164 32.4815C66.6596 32.7003 67.0033 33 67.2476 33.3807C67.4948 33.7614 67.6184 34.196 67.6184 34.6847C67.6184 35.0114 67.5559 35.3324 67.4309 35.6477C67.3059 35.9631 67.0857 36.3125 66.7704 36.696C66.4579 37.0795 66.0189 37.544 65.4536 38.0895L63.9493 39.6193V39.679H67.7505V41H61.7675ZM72.2547 41.1193C71.6865 41.1193 71.178 41.0128 70.7292 40.7997C70.2803 40.5838 69.9238 40.2884 69.6596 39.9134C69.3982 39.5384 69.259 39.1094 69.2419 38.6264H70.776C70.8044 38.9844 70.9593 39.277 71.2405 39.5043C71.5218 39.7287 71.8598 39.8409 72.2547 39.8409C72.5644 39.8409 72.84 39.7699 73.0814 39.6278C73.3229 39.4858 73.5133 39.2884 73.6525 39.0355C73.7917 38.7827 73.8598 38.4943 73.857 38.1705C73.8598 37.8409 73.7902 37.5483 73.6482 37.2926C73.5061 37.0369 73.3115 36.8366 73.0644 36.6918C72.8172 36.544 72.5331 36.4702 72.2121 36.4702C71.9508 36.4673 71.6936 36.5156 71.4408 36.6151C71.188 36.7145 70.9877 36.8452 70.84 37.0071L69.4124 36.7727L69.8684 32.2727H74.9309V33.5938H71.1766L70.9252 35.9077H70.9763C71.1383 35.7173 71.3669 35.5597 71.6624 35.4347C71.9579 35.3068 72.2817 35.2429 72.634 35.2429C73.1624 35.2429 73.634 35.3679 74.0488 35.6179C74.4635 35.8651 74.7902 36.206 75.0289 36.6406C75.2675 37.0753 75.3868 37.5724 75.3868 38.1321C75.3868 38.7088 75.2533 39.223 74.9863 39.6747C74.7221 40.1236 74.3542 40.4773 73.8826 40.7358C73.4138 40.9915 72.8712 41.1193 72.2547 41.1193ZM80.7988 36.0014V37.2713H76.8698V36.0014H80.7988ZM85.5065 41.1193C84.873 41.1193 84.3105 41.0128 83.819 40.7997C83.3304 40.5866 82.9468 40.2955 82.6684 39.9261C82.3929 39.554 82.2565 39.1321 82.2593 38.6605C82.2565 38.294 82.336 37.9574 82.498 37.6506C82.6599 37.3438 82.8787 37.0881 83.1542 36.8835C83.4326 36.6761 83.7423 36.544 84.0832 36.4872V36.4276C83.6343 36.3281 83.2707 36.0994 82.9923 35.7415C82.7167 35.3807 82.5804 34.9645 82.5832 34.4929C82.5804 34.044 82.7054 33.6435 82.9582 33.2912C83.211 32.9389 83.5576 32.6619 83.998 32.4602C84.4383 32.2557 84.9412 32.1534 85.5065 32.1534C86.0662 32.1534 86.5647 32.2557 87.0022 32.4602C87.4426 32.6619 87.7892 32.9389 88.042 33.2912C88.2977 33.6435 88.4255 34.044 88.4255 34.4929C88.4255 34.9645 88.2849 35.3807 88.0037 35.7415C87.7253 36.0994 87.3659 36.3281 86.9255 36.4276V36.4872C87.2664 36.544 87.5733 36.6761 87.846 36.8835C88.1216 37.0881 88.3403 37.3438 88.5022 37.6506C88.667 37.9574 88.7494 38.294 88.7494 38.6605C88.7494 39.1321 88.6102 39.554 88.3318 39.9261C88.0534 40.2955 87.6699 40.5866 87.1812 40.7997C86.6954 41.0128 86.1372 41.1193 85.5065 41.1193ZM85.5065 39.9006C85.8332 39.9006 86.1173 39.8452 86.3588 39.7344C86.6003 39.6207 86.7878 39.4616 86.9213 39.2571C87.0548 39.0526 87.123 38.8168 87.1258 38.5497C87.123 38.2713 87.0505 38.0256 86.9085 37.8125C86.7693 37.5966 86.5775 37.4276 86.3332 37.3054C86.0917 37.1832 85.8162 37.1222 85.5065 37.1222C85.194 37.1222 84.9156 37.1832 84.6713 37.3054C84.427 37.4276 84.2338 37.5966 84.0917 37.8125C83.9525 38.0256 83.8843 38.2713 83.8872 38.5497C83.8843 38.8168 83.9497 39.0526 84.0832 39.2571C84.2167 39.4588 84.4042 39.6165 84.6457 39.7301C84.89 39.8437 85.177 39.9006 85.5065 39.9006ZM85.5065 35.9247C85.7735 35.9247 86.0093 35.8707 86.2139 35.7628C86.4213 35.6548 86.5846 35.5043 86.7039 35.3111C86.8233 35.1179 86.8843 34.8949 86.8872 34.642C86.8843 34.392 86.8247 34.1733 86.7082 33.9858C86.5917 33.7955 86.4298 33.6491 86.2224 33.5469C86.015 33.4418 85.7764 33.3892 85.5065 33.3892C85.2309 33.3892 84.988 33.4418 84.7778 33.5469C84.5704 33.6491 84.4085 33.7955 84.292 33.9858C84.1784 34.1733 84.123 34.392 84.1258 34.642C84.123 34.8949 84.1798 35.1179 84.2963 35.3111C84.4156 35.5014 84.5789 35.652 84.7863 35.7628C84.9966 35.8707 85.2366 35.9247 85.5065 35.9247ZM94.1347 36.0014V37.2713H90.2057V36.0014H94.1347ZM95.4355 41V39.858L98.4653 36.8878C98.7551 36.5952 98.9966 36.3352 99.1897 36.108C99.3829 35.8807 99.5278 35.6605 99.6244 35.4474C99.721 35.2344 99.7693 35.0071 99.7693 34.7656C99.7693 34.4901 99.7068 34.2543 99.5818 34.0582C99.4568 33.8594 99.2849 33.706 99.0662 33.598C98.8474 33.4901 98.5988 33.4361 98.3204 33.4361C98.0335 33.4361 97.7821 33.4957 97.5662 33.6151C97.3503 33.7315 97.1826 33.8977 97.0633 34.1136C96.9468 34.3295 96.8886 34.5866 96.8886 34.8849H95.3843C95.3843 34.331 95.5108 33.8494 95.7636 33.4403C96.0164 33.0312 96.3645 32.7145 96.8076 32.4901C97.2537 32.2656 97.765 32.1534 98.3417 32.1534C98.927 32.1534 99.4412 32.2628 99.8843 32.4815C100.328 32.7003 100.671 33 100.916 33.3807C101.163 33.7614 101.286 34.196 101.286 34.6847C101.286 35.0114 101.224 35.3324 101.099 35.6477C100.974 35.9631 100.754 36.3125 100.438 36.696C100.126 37.0795 99.6869 37.544 99.1216 38.0895L97.6173 39.6193V39.679H101.418V41H95.4355ZM102.889 41V39.858L105.918 36.8878C106.208 36.5952 106.45 36.3352 106.643 36.108C106.836 35.8807 106.981 35.6605 107.078 35.4474C107.174 35.2344 107.222 35.0071 107.222 34.7656C107.222 34.4901 107.16 34.2543 107.035 34.0582C106.91 33.8594 106.738 33.706 106.519 33.598C106.301 33.4901 106.052 33.4361 105.774 33.4361C105.487 33.4361 105.235 33.4957 105.019 33.6151C104.803 33.7315 104.636 33.8977 104.516 34.1136C104.4 34.3295 104.342 34.5866 104.342 34.8849H102.837C102.837 34.331 102.964 33.8494 103.217 33.4403C103.47 33.0312 103.818 32.7145 104.261 32.4901C104.707 32.2656 105.218 32.1534 105.795 32.1534C106.38 32.1534 106.894 32.2628 107.337 32.4815C107.781 32.7003 108.124 33 108.369 33.3807C108.616 33.7614 108.739 34.196 108.739 34.6847C108.739 35.0114 108.677 35.3324 108.552 35.6477C108.427 35.9631 108.207 36.3125 107.891 36.696C107.579 37.0795 107.14 37.544 106.575 38.0895L105.07 39.6193V39.679H108.872V41H102.889Z" fill="black"/>
<path d="M149.992 22.7946C149.992 22.9298 149.949 23.0494 149.862 23.1534L143.792 30.422C143.705 30.526 143.605 30.578 143.492 30.578C143.379 30.578 143.279 30.526 143.192 30.422L137.122 23.1534C137.035 23.0494 136.992 22.9298 136.992 22.7946C136.992 22.6594 137.035 22.5399 137.122 22.4359L137.774 21.656C137.86 21.552 137.96 21.5 138.073 21.5C138.186 21.5 138.286 21.552 138.373 21.656L143.492 27.786L148.611 21.656C148.698 21.552 148.798 21.5 148.911 21.5C149.024 21.5 149.124 21.552 149.21 21.656L149.862 22.4359C149.949 22.5399 149.992 22.6594 149.992 22.7946Z" fill="#0A7777"/>
<path d="M176.992 9.5V41.5" stroke="#A8A8A8" stroke-width="3"/>
<path d="M219.992 11.5C217.076 11.5034 214.28 12.6635 212.218 14.7256C210.155 16.7878 208.995 19.5837 208.992 22.5C208.988 24.8832 209.767 27.2018 211.208 29.1C211.208 29.1 211.508 29.495 211.557 29.552L219.992 39.5L228.431 29.547C228.475 29.494 228.776 29.1 228.776 29.1L228.777 29.097C230.217 27.1996 230.995 24.8821 230.992 22.5C230.989 19.5837 229.828 16.7878 227.766 14.7256C225.704 12.6635 222.908 11.5034 219.992 11.5V11.5ZM219.992 17.5C220.585 17.5 221.165 17.6759 221.659 18.0056C222.152 18.3352 222.537 18.8038 222.764 19.3519C222.991 19.9001 223.05 20.5033 222.934 21.0853C222.819 21.6672 222.533 22.2018 222.113 22.6213C221.694 23.0409 221.159 23.3266 220.577 23.4424C219.995 23.5581 219.392 23.4987 218.844 23.2716C218.296 23.0446 217.827 22.6601 217.498 22.1667C217.168 21.6734 216.992 21.0933 216.992 20.5C216.993 19.7046 217.309 18.942 217.872 18.3796C218.434 17.8171 219.197 17.5008 219.992 17.5V17.5ZM223.992 28.5H221.992V26.5H217.992V28.5H215.992V26.5C215.992 25.9697 216.203 25.4613 216.578 25.0864C216.953 24.7114 217.462 24.5005 217.992 24.5H221.992C222.522 24.5005 223.031 24.7114 223.406 25.0864C223.781 25.4613 223.991 25.9697 223.992 26.5V28.5Z" fill="#0A7777"/>
<path d="M263.853 33.2727H265.787L268.378 39.5966H268.481L271.071 33.2727H273.006V42H271.489V36.0043H271.408L268.996 41.9744H267.863L265.451 35.9915H265.37V42H263.853V33.2727ZM278.831 39.2472V35.4545H280.374V42H278.878V40.8366H278.81C278.662 41.2031 278.42 41.5028 278.081 41.7358C277.746 41.9687 277.333 42.0852 276.841 42.0852C276.412 42.0852 276.033 41.9901 275.704 41.7997C275.377 41.6065 275.121 41.3267 274.937 40.9602C274.752 40.5909 274.66 40.1449 274.66 39.6222V35.4545H276.202V39.3835C276.202 39.7983 276.316 40.1278 276.543 40.3722C276.77 40.6165 277.069 40.7386 277.438 40.7386C277.665 40.7386 277.885 40.6832 278.098 40.5724C278.312 40.4616 278.486 40.2969 278.623 40.0781C278.762 39.8565 278.831 39.5795 278.831 39.2472ZM281.96 42V35.4545H283.435V36.5668H283.511C283.648 36.1918 283.874 35.8991 284.189 35.6889C284.504 35.4759 284.881 35.3693 285.318 35.3693C285.761 35.3693 286.135 35.4773 286.439 35.6932C286.746 35.9062 286.962 36.1974 287.087 36.5668H287.155C287.3 36.2031 287.544 35.9134 287.888 35.6974C288.234 35.4787 288.645 35.3693 289.119 35.3693C289.722 35.3693 290.213 35.5597 290.594 35.9403C290.975 36.321 291.165 36.8764 291.165 37.6065V42H289.618V37.8452C289.618 37.4389 289.51 37.142 289.294 36.9545C289.078 36.7642 288.814 36.669 288.502 36.669C288.129 36.669 287.838 36.7855 287.628 37.0185C287.421 37.2486 287.317 37.5483 287.317 37.9176V42H285.804V37.7812C285.804 37.4432 285.702 37.1733 285.497 36.9716C285.296 36.7699 285.031 36.669 284.705 36.669C284.483 36.669 284.281 36.7259 284.1 36.8395C283.918 36.9503 283.773 37.108 283.665 37.3125C283.557 37.5142 283.503 37.75 283.503 38.0199V42H281.96ZM292.798 42V33.2727H294.341V36.5369H294.405C294.484 36.3778 294.596 36.2088 294.741 36.0298C294.886 35.848 295.082 35.6932 295.329 35.5653C295.576 35.4347 295.892 35.3693 296.275 35.3693C296.781 35.3693 297.237 35.4986 297.643 35.7571C298.052 36.0128 298.376 36.392 298.615 36.8949C298.856 37.3949 298.977 38.0085 298.977 38.7358C298.977 39.4545 298.859 40.0653 298.623 40.5682C298.388 41.071 298.067 41.4545 297.66 41.7188C297.254 41.983 296.794 42.1151 296.28 42.1151C295.905 42.1151 295.594 42.0526 295.346 41.9276C295.099 41.8026 294.9 41.652 294.75 41.4759C294.602 41.2969 294.487 41.1278 294.405 40.9688H294.315V42H292.798ZM294.311 38.7273C294.311 39.1506 294.37 39.5213 294.49 39.8395C294.612 40.1577 294.787 40.4062 295.014 40.5852C295.244 40.7614 295.522 40.8494 295.849 40.8494C296.19 40.8494 296.476 40.7585 296.706 40.5767C296.936 40.392 297.109 40.1406 297.226 39.8224C297.345 39.5014 297.405 39.1364 297.405 38.7273C297.405 38.321 297.346 37.9602 297.23 37.6449C297.113 37.3295 296.94 37.0824 296.71 36.9034C296.48 36.7244 296.193 36.6349 295.849 36.6349C295.52 36.6349 295.24 36.7216 295.01 36.8949C294.78 37.0682 294.605 37.3111 294.486 37.6236C294.369 37.9361 294.311 38.304 294.311 38.7273ZM302.172 42.1321C301.757 42.1321 301.384 42.0582 301.051 41.9105C300.722 41.7599 300.46 41.5384 300.267 41.2457C300.077 40.9531 299.982 40.5923 299.982 40.1634C299.982 39.794 300.05 39.4886 300.186 39.2472C300.323 39.0057 300.509 38.8125 300.744 38.6676C300.98 38.5227 301.246 38.4134 301.541 38.3395C301.84 38.2628 302.148 38.2074 302.466 38.1733C302.85 38.1335 303.161 38.098 303.399 38.0668C303.638 38.0327 303.811 37.9815 303.919 37.9134C304.03 37.8423 304.085 37.733 304.085 37.5852V37.5597C304.085 37.2386 303.99 36.9901 303.8 36.8139C303.609 36.6378 303.335 36.5497 302.977 36.5497C302.6 36.5497 302.3 36.6321 302.078 36.7969C301.859 36.9616 301.712 37.1562 301.635 37.3807L300.195 37.1761C300.308 36.7784 300.496 36.446 300.757 36.179C301.019 35.9091 301.338 35.7074 301.716 35.5739C302.094 35.4375 302.511 35.3693 302.969 35.3693C303.284 35.3693 303.598 35.4062 303.911 35.4801C304.223 35.554 304.509 35.6761 304.767 35.8466C305.026 36.0142 305.233 36.2429 305.389 36.5327C305.548 36.8224 305.628 37.1847 305.628 37.6193V42H304.145V41.1009H304.094C304 41.2827 303.868 41.4531 303.698 41.6122C303.53 41.7685 303.318 41.8949 303.063 41.9915C302.81 42.0852 302.513 42.1321 302.172 42.1321ZM302.573 40.9986C302.882 40.9986 303.151 40.9375 303.378 40.8153C303.605 40.6903 303.78 40.5256 303.902 40.321C304.027 40.1165 304.09 39.8935 304.09 39.652V38.8807C304.041 38.9205 303.959 38.9574 303.842 38.9915C303.729 39.0256 303.601 39.0554 303.459 39.081C303.317 39.1065 303.176 39.1293 303.037 39.1491C302.898 39.169 302.777 39.1861 302.675 39.2003C302.445 39.2315 302.239 39.2827 302.057 39.3537C301.875 39.4247 301.732 39.5241 301.627 39.652C301.521 39.777 301.469 39.9389 301.469 40.1378C301.469 40.4219 301.573 40.6364 301.78 40.7812C301.987 40.9261 302.252 40.9986 302.573 40.9986ZM307.179 42V35.4545H308.722V42H307.179ZM307.955 34.5256C307.71 34.5256 307.5 34.4446 307.324 34.2827C307.148 34.1179 307.06 33.9205 307.06 33.6903C307.06 33.4574 307.148 33.2599 307.324 33.098C307.5 32.9332 307.71 32.8509 307.955 32.8509C308.202 32.8509 308.412 32.9332 308.585 33.098C308.761 33.2599 308.85 33.4574 308.85 33.6903C308.85 33.9205 308.761 34.1179 308.585 34.2827C308.412 34.4446 308.202 34.5256 307.955 34.5256ZM312.119 40.8068L312.064 41.2756C312.024 41.6335 311.953 41.9972 311.851 42.3665C311.751 42.7386 311.646 43.081 311.535 43.3935C311.424 43.706 311.335 43.9517 311.267 44.1307H310.227C310.267 43.9574 310.321 43.7216 310.389 43.4233C310.46 43.125 310.528 42.7898 310.594 42.4176C310.659 42.0455 310.703 41.6676 310.726 41.2841L310.755 40.8068H312.119ZM318.203 33.2727V42H316.622V33.2727H318.203ZM321.39 38.1648V42H319.847V35.4545H321.321V36.5668H321.398C321.549 36.2003 321.789 35.9091 322.118 35.6932C322.451 35.4773 322.861 35.3693 323.35 35.3693C323.802 35.3693 324.195 35.4659 324.53 35.6591C324.868 35.8523 325.13 36.1321 325.314 36.4986C325.502 36.8651 325.594 37.3097 325.591 37.8324V42H324.049V38.071C324.049 37.6335 323.935 37.2912 323.708 37.044C323.483 36.7969 323.172 36.6733 322.775 36.6733C322.505 36.6733 322.265 36.733 322.054 36.8523C321.847 36.9687 321.684 37.1378 321.564 37.3594C321.448 37.581 321.39 37.8494 321.39 38.1648ZM329.589 42.1151C329.074 42.1151 328.614 41.983 328.208 41.7188C327.802 41.4545 327.481 41.071 327.245 40.5682C327.009 40.0653 326.891 39.4545 326.891 38.7358C326.891 38.0085 327.01 37.3949 327.249 36.8949C327.491 36.392 327.816 36.0128 328.225 35.7571C328.634 35.4986 329.09 35.3693 329.593 35.3693C329.976 35.3693 330.292 35.4347 330.539 35.5653C330.786 35.6932 330.982 35.848 331.127 36.0298C331.272 36.2088 331.384 36.3778 331.464 36.5369H331.527V33.2727H333.074V42H331.557V40.9688H331.464C331.384 41.1278 331.269 41.2969 331.118 41.4759C330.968 41.652 330.769 41.8026 330.522 41.9276C330.275 42.0526 329.964 42.1151 329.589 42.1151ZM330.019 40.8494C330.346 40.8494 330.624 40.7614 330.854 40.5852C331.084 40.4062 331.259 40.1577 331.378 39.8395C331.498 39.5213 331.557 39.1506 331.557 38.7273C331.557 38.304 331.498 37.9361 331.378 37.6236C331.262 37.3111 331.089 37.0682 330.858 36.8949C330.631 36.7216 330.351 36.6349 330.019 36.6349C329.675 36.6349 329.388 36.7244 329.158 36.9034C328.928 37.0824 328.755 37.3295 328.638 37.6449C328.522 37.9602 328.464 38.321 328.464 38.7273C328.464 39.1364 328.522 39.5014 328.638 39.8224C328.758 40.1406 328.932 40.392 329.162 40.5767C329.395 40.7585 329.681 40.8494 330.019 40.8494ZM334.718 42V35.4545H336.261V42H334.718ZM335.494 34.5256C335.249 34.5256 335.039 34.4446 334.863 34.2827C334.687 34.1179 334.599 33.9205 334.599 33.6903C334.599 33.4574 334.687 33.2599 334.863 33.098C335.039 32.9332 335.249 32.8509 335.494 32.8509C335.741 32.8509 335.951 32.9332 336.124 33.098C336.301 33.2599 336.389 33.4574 336.389 33.6903C336.389 33.9205 336.301 34.1179 336.124 34.2827C335.951 34.4446 335.741 34.5256 335.494 34.5256ZM339.731 42.1321C339.316 42.1321 338.942 42.0582 338.61 41.9105C338.28 41.7599 338.019 41.5384 337.826 41.2457C337.635 40.9531 337.54 40.5923 337.54 40.1634C337.54 39.794 337.608 39.4886 337.745 39.2472C337.881 39.0057 338.067 38.8125 338.303 38.6676C338.539 38.5227 338.804 38.4134 339.1 38.3395C339.398 38.2628 339.706 38.2074 340.025 38.1733C340.408 38.1335 340.719 38.098 340.958 38.0668C341.196 38.0327 341.37 37.9815 341.478 37.9134C341.589 37.8423 341.644 37.733 341.644 37.5852V37.5597C341.644 37.2386 341.549 36.9901 341.358 36.8139C341.168 36.6378 340.894 36.5497 340.536 36.5497C340.158 36.5497 339.858 36.6321 339.637 36.7969C339.418 36.9616 339.27 37.1562 339.194 37.3807L337.753 37.1761C337.867 36.7784 338.054 36.446 338.316 36.179C338.577 35.9091 338.897 35.7074 339.275 35.5739C339.652 35.4375 340.07 35.3693 340.527 35.3693C340.843 35.3693 341.157 35.4062 341.469 35.4801C341.782 35.554 342.067 35.6761 342.326 35.8466C342.584 36.0142 342.792 36.2429 342.948 36.5327C343.107 36.8224 343.187 37.1847 343.187 37.6193V42H341.704V41.1009H341.652C341.559 41.2827 341.427 41.4531 341.256 41.6122C341.089 41.7685 340.877 41.8949 340.621 41.9915C340.368 42.0852 340.071 42.1321 339.731 42.1321ZM340.131 40.9986C340.441 40.9986 340.709 40.9375 340.937 40.8153C341.164 40.6903 341.339 40.5256 341.461 40.321C341.586 40.1165 341.648 39.8935 341.648 39.652V38.8807C341.6 38.9205 341.518 38.9574 341.401 38.9915C341.287 39.0256 341.16 39.0554 341.018 39.081C340.875 39.1065 340.735 39.1293 340.596 39.1491C340.456 39.169 340.336 39.1861 340.233 39.2003C340.003 39.2315 339.797 39.2827 339.616 39.3537C339.434 39.4247 339.29 39.5241 339.185 39.652C339.08 39.777 339.027 39.9389 339.027 40.1378C339.027 40.4219 339.131 40.6364 339.339 40.7812C339.546 40.9261 339.81 40.9986 340.131 40.9986Z" fill="black"/>
<path d="M396.992 22.7946C396.992 22.9298 396.945 23.0494 396.852 23.1534L390.315 30.422C390.221 30.526 390.114 30.578 389.992 30.578C389.87 30.578 389.763 30.526 389.669 30.422L383.132 23.1534C383.039 23.0494 382.992 22.9298 382.992 22.7946C382.992 22.6594 383.039 22.5399 383.132 22.4359L383.834 21.656C383.927 21.552 384.035 21.5 384.156 21.5C384.278 21.5 384.385 21.552 384.479 21.656L389.992 27.786L395.505 21.656C395.598 21.552 395.706 21.5 395.828 21.5C395.949 21.5 396.057 21.552 396.15 21.656L396.852 22.4359C396.945 22.5399 396.992 22.6594 396.992 22.7946Z" fill="#0A7777"/>
<path d="M448.21 30.188C450.207 27.5453 451.101 24.2689 450.714 21.0143C450.327 17.7596 448.687 14.7666 446.122 12.6342C443.557 10.5018 440.256 9.38716 436.88 9.51331C433.504 9.63946 430.301 10.9971 427.913 13.3146C425.525 15.6321 424.127 18.7385 423.999 22.0124C423.872 25.2863 425.024 28.4863 427.225 30.972C429.425 33.4578 432.513 35.0461 435.87 35.4191C439.226 35.7922 442.605 34.9224 445.328 32.984H445.326C445.388 33.064 445.454 33.14 445.528 33.214L453.469 40.914C453.856 41.2892 454.38 41.5002 454.927 41.5004C455.475 41.5005 455.999 41.29 456.386 40.915C456.773 40.5399 456.991 40.0312 456.991 39.5007C456.991 38.9701 456.774 38.4612 456.387 38.086L448.447 30.386C448.373 30.3136 448.294 30.2467 448.21 30.186V30.188ZM448.742 22.5C448.742 23.9445 448.448 25.3749 447.878 26.7095C447.308 28.0441 446.473 29.2567 445.419 30.2781C444.366 31.2996 443.115 32.1098 441.739 32.6626C440.363 33.2154 438.888 33.5 437.398 33.5C435.908 33.5 434.433 33.2154 433.057 32.6626C431.681 32.1098 430.43 31.2996 429.377 30.2781C428.323 29.2567 427.488 28.0441 426.918 26.7095C426.348 25.3749 426.054 23.9445 426.054 22.5C426.054 19.5826 427.249 16.7847 429.377 14.7218C431.504 12.6589 434.389 11.5 437.398 11.5C440.407 11.5 443.292 12.6589 445.419 14.7218C447.547 16.7847 448.742 19.5826 448.742 22.5V22.5Z" fill="#0A7777"/>
</svg>
